<?xml version="1.0" encoding="iso-8859-1"?>
<!-- Generator: Adobe Illustrator 18.1.1, SVG Export Plug-In . SVG Version: 6.00 Build 0)  -->
<svg version="1.1" xmlns="http://www.w3.org/2000/svg" xmlns:xlink="http://www.w3.org/1999/xlink" x="0px" y="0px"
	 viewBox="0 0 18 18" enable-background="new 0 0 18 18" xml:space="preserve">
<g id="Layer_1">
</g>
<g id="Layer_2">
</g>
<g id="Layer_3">
</g>
<g id="Layer_4">
</g>
<g id="Layer_5">
</g>
<g id="Layer_10">
</g>
<g id="Layer_6">
</g>
<g id="Layer_7">
</g>
<g id="Layer_8">
</g>
<g id="Layer_9">
    <path fill="#FFFFFF" d="M16.013,13.849l-3.243-3.243l-1.729-0.391l-1.01-1.01l1.806-1.807c0.442,0.239,0.933,0.379,1.45,0.379
		c0.819,0,1.59-0.319,2.169-0.898c0.579-0.579,0.898-1.35,0.898-2.169c0-0.437-0.102-0.865-0.313-1.308l-0.798,0.381
		c0.154,0.321,0.228,0.624,0.228,0.927c0,0.583-0.227,1.131-0.639,1.544c-0.412,0.412-0.684,0.363-1.267,0.363
		c-1.166,0-2.183-1.017-2.183-2.183c0-0.583-0.049-0.855,0.363-1.267s0.961-0.639,1.544-0.639c0.302,0,0.605,0.074,0.926,0.227
		l0.38-0.798c-0.443-0.211-0.871-0.314-1.307-0.313c-0.819,0-1.589,0.319-2.169,0.898s-0.898,1.35-0.898,2.169
		c0,0.517,0.14,1.008,0.379,1.45L8.793,7.966L6.206,5.38L5.991,4.181L4.224,2.413l-1.591-0.53L1.926,2.59l0.53,1.591l1.768,1.768
		l1.275,0.139l2.587,2.587l-2.1,2.1c-0.433-0.235-0.922-0.38-1.448-0.38c-0.819,0-1.59,0.319-2.169,0.898
		c-0.579,0.579-0.898,1.35-0.898,2.169c-0.001,0.436,0.102,0.863,0.313,1.306l0.798-0.378c-0.153-0.322-0.227-0.626-0.227-0.927
		c0-1.204,0.751-1.956,1.956-1.956c1.204,0.002,2.181,0.981,2.183,2.183c0,1.204-0.751,1.956-1.956,1.956
		c-0.302-0.001-0.605-0.075-0.927-0.229l-0.38,0.8c0.443,0.21,0.871,0.313,1.307,0.313c0.819,0,1.59-0.319,2.169-0.898
		s0.898-1.35,0.898-2.169c0-0.526-0.146-1.015-0.381-1.448l2.1-2.1l1.01,1.01l0.315,1.806l3.243,3.243l1.619,0.503l1.072-1.072
		L16.013,13.849z" />
</g>
</svg>
